<?xml version="1.0" standalone="no"?>
<!DOCTYPE svg PUBLIC "-//W3C//DTD SVG 20010904//EN"
 "http://www.w3.org/TR/2001/REC-SVG-20010904/DTD/svg10.dtd">
<svg version="1.0" xmlns="http://www.w3.org/2000/svg"
 width="700.000000pt" height="700.000000pt" viewBox="0 0 700.000000 700.000000"
 preserveAspectRatio="xMidYMid meet">
<metadata>
Created by potrace 1.11, written by Peter Selinger 2001-2013
</metadata>
<g transform="translate(0.000000,700.000000) scale(0.100000,-0.100000)"
fill="#000000" stroke="none">
<path d="M4400 6782 c-19 -1 -44 -4 -56 -7 -15 -3 -287 -187 -584 -395 -8 -6
-177 -123 -375 -260 -506 -349 -496 -342 -517 -371 -11 -14 -41 -111 -68 -215
-26 -104 -67 -261 -90 -349 -98 -380 -142 -551 -145 -565 -2 -8 -15 -58 -28
-110 -37 -138 -109 -413 -112 -425 -4 -19 -18 -72 -61 -238 -24 -92 -46 -178
-48 -190 -3 -12 -14 -56 -25 -97 -10 -41 -37 -145 -60 -230 -220 -849 -298
-1154 -310 -1206 l-12 -52 -97 -17 c-53 -10 -106 -19 -117 -22 -11 -2 -42 -8
-70 -13 -27 -5 -63 -12 -80 -15 -16 -3 -109 -26 -205 -50 -281 -71 -484 -141
-659 -228 -224 -112 -352 -221 -419 -356 -32 -65 -37 -85 -39 -153 -2 -90 14
-147 65 -228 31 -49 147 -170 164 -170 4 0 13 -6 20 -13 22 -23 168 -108 242
-142 83 -38 227 -94 306 -120 30 -10 64 -22 75 -26 24 -10 398 -106 440 -113
17 -2 62 -11 100 -19 39 -9 88 -18 109 -21 21 -4 48 -8 60 -11 12 -2 37 -7 56
-10 19 -2 44 -6 55 -9 22 -4 90 -14 148 -21 20 -3 54 -7 75 -10 179 -24 323
-39 477 -50 50 -4 108 -8 130 -10 155 -14 388 -20 760 -20 370 0 526 4 755 20
157 10 237 17 250 20 8 2 52 7 97 10 45 3 92 8 105 10 12 2 46 6 73 10 271 34
601 90 793 136 186 45 459 128 567 174 22 9 58 24 80 33 22 9 77 35 122 58
514 264 576 634 155 925 -209 145 -593 286 -1032 379 -74 15 -152 31 -174 34
-21 4 -41 8 -45 10 -3 2 -28 7 -56 10 -108 14 -99 5 -130 126 -15 60 -27 111
-26 112 2 2 -2 15 -8 31 -6 15 -13 38 -15 50 -2 12 -21 85 -41 162 -21 77 -39
147 -40 155 -2 8 -11 42 -20 75 -17 62 -34 128 -40 156 -2 9 -17 67 -34 130
-17 63 -50 193 -75 289 -51 202 -110 429 -168 650 -22 85 -42 161 -44 170 -2
8 -21 85 -44 170 -22 85 -42 164 -45 175 -2 11 -16 65 -30 120 -15 55 -28 105
-29 110 -2 6 -8 30 -15 55 -7 25 -15 53 -17 62 -2 10 -6 26 -8 36 -17 72 -108
417 -112 423 -4 7 82 111 262 319 126 146 172 199 189 221 36 45 16 48 325
-38 65 -17 220 -60 375 -102 90 -24 196 -53 315 -86 186 -51 196 -53 241 -29
41 21 61 70 49 116 -11 39 -37 64 -320 318 -52 47 -97 87 -100 90 -3 3 -48 43
-100 90 -156 140 -172 155 -184 165 -6 6 -58 53 -116 105 -58 52 -145 131
-194 175 -150 135 -120 125 -356 128 -113 1 -221 1 -240 -1z"/>
</g>
</svg>
