<svg height="512" viewBox="0 0 64 64" width="512" xmlns="http://www.w3.org/2000/svg"><g id="Witch"><ellipse cx="32" cy="53" fill="#6d2c93" rx="29" ry="8"/><path d="m32 45c-14.016 0-25.71 2.743-28.412 6.389 3.925-3.136 14.712-5.389 27.412-5.389 16.016 0 29 3.582 29 8a2.7 2.7 0 0 1 -.588 1.611 3.5 3.5 0 0 0 1.588-2.611c0-4.418-12.984-8-29-8z" fill="#5a2479"/><path d="m37.79 15.07 5.21-6.07 11 3-10-9h-4l-13 9-9.88 38.24a2.464 2.464 0 0 0 -.12.76c0 3.31 6.72 6 15 6s15-2.69 15-6a2.464 2.464 0 0 0 -.12-.76z" fill="#a25bcd"/><g fill="#933ec5"><path d="m37.79 15.07 4.831-5.628-1.621-.442-5.21 6.07 9.09 35.17a2.464 2.464 0 0 1 .12.76c0 3.175-6.188 5.773-14 5.98.332.009.662.02 1 .02 8.28 0 15-2.69 15-6a2.464 2.464 0 0 0 -.12-.76z"/><path d="m54 12-10-9h-2l9.13 8.217z"/><path d="m54 12-10-9h-2l9.13 8.217z"/></g><path d="m36 46.78v6c5.067-.56 9.055-2.158 10.457-4.176l-.668-2.587-.569-2.187c-1.92 1.43-5.23 2.51-9.22 2.95z" fill="#ff9811"/><path d="m45.789 46.017-.569-2.187a10.481 10.481 0 0 1 -1.734 1.022l.3 1.165 1 4.111a5.969 5.969 0 0 0 1.671-1.528z" fill="#ee8700"/><path d="m28 46.78v6c-5.067-.56-9.055-2.158-10.457-4.176l.668-2.587.569-2.187c1.92 1.43 5.23 2.51 9.22 2.95z" fill="#ff9811"/><path d="m36 54v-1.22-6-1.78h-4v9z" fill="#6e76e5"/><path d="m32 54v-9h-4v1.78 6 1.22z" fill="#3440db"/><path d="m46.577 45.073-7.688-29.748 4.458-5.194 10.39 2.834a1 1 0 0 0 .932-1.708l-10-9a1 1 0 0 0 -.669-.257h-4a1 1 0 0 0 -.569.178l-13 9a1 1 0 0 0 -.4.572l-8.221 31.84-.382 1.478c-5.123.818-15.428 3.063-15.428 7.932 0 5.846 15.457 9 30 9s30-3.154 30-9c0-4.868-10.3-7.113-15.423-7.927zm-19.577 6.568c-3.887-.571-7.036-1.8-8.365-3.27l.553-2.138a.437.437 0 0 0 .012-.049l.2-.786a22.325 22.325 0 0 0 7.6 2.258zm-8.994-.6.077-.489c1.922 1.475 5.067 2.585 8.917 3.112v.336a1 1 0 0 0 1 1h8a1 1 0 0 0 1-1v-.337c3.849-.527 6.995-1.637 8.917-3.112l.081.517c-.113 2.343-6.062 4.932-13.998 4.932s-13.891-2.592-14-4.935zm12.994 1.959h-2v-7h2zm4-7v7h-2v-7zm9.8.166c.006.029.013.056.021.084l.548 2.118c-1.326 1.473-4.478 2.7-8.368 3.273v-3.985a22.328 22.328 0 0 0 7.6-2.26zm-16.925-33.556 12.437-8.61h3.3l6.588 5.928-6.94-1.893a1.006 1.006 0 0 0 -1.022.314l-3.958 4.614-.311-1.212a1 1 0 0 0 -1.938.5l.787 3.059.007.025 7.255 28.05a19.118 19.118 0 0 1 -7.08 2.254v-.639a1 1 0 0 0 -1-1h-8a1 1 0 0 0 -1 1v.639a19.134 19.134 0 0 1 -7.077-2.252zm4.125 47.39c-17.348 0-28-4.077-28-7 0-1.785 4.049-4.3 12.88-5.808l-.706 2.731-.006.012a3.44 3.44 0 0 0 -.168 1.065c0 3.991 6.879 7 16 7s16-3.009 16-7a3.429 3.429 0 0 0 -.147-.978l-.005-.032-.723-2.8c8.827 1.51 12.875 4.025 12.875 5.81 0 2.923-10.652 7-28 7z" fill="#231f20"/><path d="m34.944 20.032a1 1 0 0 0 -.717 1.218l4.909 19a1 1 0 0 0 .964.75.988.988 0 0 0 .251-.032 1 1 0 0 0 .717-1.218l-4.909-19a1 1 0 0 0 -1.215-.718z" fill="#231f20"/><path d="m33.45 18.25a1 1 0 0 0 .968.75.988.988 0 0 0 .251-.032 1 1 0 0 0 .719-1.218l-.258-1a1 1 0 0 0 -1.938.5z" fill="#231f20"/></g></svg>